<?xml version="1.0" standalone="no"?>
<!DOCTYPE svg PUBLIC "-//W3C//DTD SVG 20010904//EN"
 "http://www.w3.org/TR/2001/REC-SVG-20010904/DTD/svg10.dtd">
<svg version="1.0" xmlns="http://www.w3.org/2000/svg"
 width="1024.000000pt" height="647.000000pt" viewBox="0 0 1024.000000 647.000000"
 preserveAspectRatio="xMidYMid meet">

<g transform="translate(0.000000,647.000000) scale(0.100000,-0.100000)"
fill="#000000" stroke="none">
<path d="M2065 5952 c-96 -31 -182 -147 -263 -352 -37 -95 -54 -171 -91 -408
-118 -752 -151 -1298 -131 -2132 7 -256 15 -539 19 -630 6 -151 5 -175 -17
-275 -12 -60 -40 -219 -61 -352 -21 -132 -42 -246 -45 -252 -5 -7 -79 -11
-227 -11 -239 0 -267 -5 -322 -58 -31 -30 -52 -93 -42 -131 11 -42 49 -85 103
-114 55 -30 116 -39 330 -52 l112 -7 0 -37 c0 -20 -3 -66 -6 -103 l-7 -67
-206 -3 c-194 -3 -208 -4 -246 -26 -56 -33 -78 -66 -83 -129 -4 -45 0 -59 21
-92 35 -52 104 -99 164 -110 26 -5 120 -13 208 -16 88 -4 161 -8 163 -10 2 -1
13 -54 26 -117 26 -127 54 -199 94 -242 42 -44 140 -107 190 -122 107 -33 415
-35 3902 -32 l3475 3 54 30 c64 35 85 61 145 180 39 77 58 138 90 276 l6 27
182 4 c253 7 334 34 368 123 26 70 -33 185 -117 226 -44 22 -63 24 -230 27
l-181 4 -6 32 c-3 17 -6 60 -7 96 l-3 65 185 6 c188 7 235 15 302 52 87 49 90
156 8 249 -55 63 -89 71 -328 76 l-213 4 -5 32 c-30 186 -72 400 -104 531
l-38 160 7 160 c23 449 33 1175 22 1460 -24 591 -122 1374 -203 1625 -28 84
-111 247 -159 311 -104 138 -229 152 -475 54 -524 -208 -1096 -607 -1556
-1085 l-66 -69 -144 30 c-468 95 -1054 142 -1492 121 -354 -17 -764 -68 -1017
-126 l-105 -25 -104 110 c-250 264 -666 603 -984 801 -207 128 -518 275 -667
313 -74 19 -162 18 -225 -3z m356 -458 c234 -68 654 -368 970 -691 189 -194
220 -233 187 -233 -25 0 -334 -157 -441 -223 -414 -257 -673 -522 -1049 -1076
l-98 -145 0 595 c0 737 15 936 101 1344 53 250 92 363 148 423 27 27 100 30
182 6z m6157 -8 c65 -34 119 -171 172 -439 86 -431 117 -860 105 -1457 -4
-201 -10 -371 -14 -378 -5 -8 -31 22 -76 90 -205 308 -474 613 -705 798 -180
144 -361 253 -677 410 -73 36 -132 68 -132 71 -1 4 83 93 186 199 198 203 366
346 563 479 189 128 297 180 453 221 88 23 92 23 125 6z m-2843 -866 c283 -16
608 -61 835 -116 141 -35 433 -132 550 -184 221 -97 528 -283 720 -436 197
-157 501 -488 649 -708 213 -316 403 -729 515 -1121 41 -143 126 -478 126
-497 0 -5 -13 -8 -28 -8 -54 0 -127 -29 -159 -62 -69 -72 -62 -153 20 -233 56
-54 105 -75 176 -75 25 0 43 -5 46 -12 2 -7 6 -54 9 -104 l7 -92 -88 -4 c-138
-7 -210 -57 -220 -152 -12 -104 108 -214 235 -216 53 0 53 -8 5 -105 -43 -87
-115 -182 -146 -194 -12 -5 -1621 -9 -3574 -10 l-3553 -2 -44 68 c-50 78 -82
140 -102 195 -15 44 -20 39 70 56 167 32 220 124 144 252 -41 69 -92 98 -182
107 l-66 6 0 76 c0 116 -1 115 87 129 136 21 203 72 203 152 0 42 -38 127 -71
157 -31 29 -90 53 -128 53 -16 0 -32 4 -36 9 -8 13 39 246 79 392 125 455 294
859 469 1122 342 511 789 933 1223 1155 361 183 645 278 1044 346 348 60 758
79 1185 56z"/>
<path d="M7196 3179 c-155 -23 -314 -82 -501 -186 -74 -42 -262 -233 -329
-335 -62 -95 -114 -211 -148 -335 -19 -67 -22 -105 -22 -263 -1 -174 1 -191
27 -285 149 -524 642 -876 1192 -852 196 9 343 48 498 133 195 106 337 231
441 387 132 200 185 375 186 612 0 139 -11 214 -46 328 -129 413 -491 720
-934 792 -102 16 -268 18 -364 4z m399 -318 c104 -27 264 -106 343 -171 135
-110 241 -278 283 -449 31 -124 24 -300 -18 -426 -111 -339 -418 -566 -785
-582 -187 -9 -326 22 -487 108 -296 158 -476 497 -432 816 52 375 346 662 746
727 67 10 271 -3 350 -23z"/>
<path d="M7205 2694 c-33 -8 -103 -35 -155 -61 -80 -38 -109 -60 -181 -132
-106 -106 -162 -210 -186 -349 -33 -188 29 -386 165 -533 238 -257 648 -304
949 -108 128 84 235 228 279 374 25 83 25 249 0 330 -72 241 -267 421 -518
480 -80 19 -273 18 -353 -1z"/>
<path d="M3335 3170 c-271 -31 -534 -159 -722 -352 -335 -344 -415 -840 -203
-1263 118 -236 283 -395 545 -529 157 -80 269 -107 465 -113 234 -8 384 23
585 121 418 203 666 618 642 1071 -16 300 -172 609 -403 796 -244 200 -598
304 -909 269z m342 -321 c300 -68 533 -278 628 -564 33 -97 44 -273 26 -380
-57 -325 -318 -587 -669 -672 -103 -25 -294 -22 -407 5 -574 141 -842 772
-529 1243 204 309 580 454 951 368z"/>
<path d="M3330 2705 c-260 -58 -460 -231 -533 -460 -30 -94 -31 -282 -3 -365
38 -111 88 -192 171 -276 67 -68 98 -90 176 -128 125 -61 207 -79 344 -79 193
1 360 65 494 189 136 126 201 264 209 444 5 121 -17 222 -69 320 -87 163 -258
297 -444 346 -85 22 -264 27 -345 9z"/>
<path d="M5210 1893 c-19 -25 -21 -36 -15 -98 3 -38 11 -80 17 -92 6 -12 39
-41 74 -65 35 -24 64 -47 64 -52 0 -24 -187 -179 -264 -218 -53 -27 -108 -21
-229 27 -88 35 -98 37 -128 25 -56 -24 -71 -96 -30 -144 26 -30 128 -93 179
-111 l47 -15 22 -91 c49 -194 115 -308 236 -404 134 -107 221 -133 333 -100
83 24 139 59 216 136 53 53 77 88 117 170 28 57 63 145 80 194 l29 90 46 17
c59 21 151 90 177 131 26 43 24 73 -6 102 -38 39 -88 34 -164 -17 -49 -32 -74
-42 -115 -46 -97 -8 -165 28 -310 164 l-86 81 71 48 c38 26 74 55 79 65 5 10
12 54 16 98 6 67 4 86 -10 107 l-16 25 -205 0 -204 0 -21 -27z"/>
</g>
</svg>
